<svg xmlns="http://www.w3.org/2000/svg" viewBox="0 0 197.11 68.43"><defs><style>.cls-1{fill:none;}.cls-2{fill:#202121;}.cls-3{font-size:13.81px;fill:#151616;font-family:Montserrat-Bold, Montserrat;font-weight:700;}.cls-4{fill:#95b73f;}</style></defs><title>Asset 1</title><g id="Layer_2" data-name="Layer 2"><g id="Layer_1-2" data-name="Layer 1"><rect class="cls-1" width="197.11" height="68.43"/><path class="cls-2" d="M64.6,17.38H79.33A10.77,10.77,0,0,1,84,18.45a9.16,9.16,0,0,1,3.59,3A7.65,7.65,0,0,1,89,26a10.06,10.06,0,0,1-3.89,7.91,12.09,12.09,0,0,1,4.14,3.75,8.81,8.81,0,0,1,1.57,5.1,10.17,10.17,0,0,1-1.46,5.53,9.33,9.33,0,0,1-4,3.52A13.43,13.43,0,0,1,79.59,53H76.88V43.84h2.5a2,2,0,0,0,1.41-.5A1.72,1.72,0,0,0,81.36,42a1.6,1.6,0,0,0-.52-1.22,1.74,1.74,0,0,0-1.25-.49H76.88V30.77q2.88,0,2.88-2a1.56,1.56,0,0,0-.65-1.36,2.75,2.75,0,0,0-1.59-.45H75.11V53H64.6Z"/><path class="cls-2" d="M108.57,26.77V37.23a3.57,3.57,0,0,0-1.66-.43,2.34,2.34,0,0,0-2,.9,3.55,3.55,0,0,0-.7,2.25V53H94.32V37.33a10.23,10.23,0,0,1,1.53-5.4,11.36,11.36,0,0,1,4.08-4,10.69,10.69,0,0,1,5.44-1.48A15.59,15.59,0,0,1,108.57,26.77Z"/><path class="cls-2" d="M122.23,27V53h-9.77V27Zm-4.86-11.52a4.84,4.84,0,0,1,3.4,1.36,4.3,4.3,0,0,1,1.46,3.28,4.35,4.35,0,0,1-1.4,3.33,5.22,5.22,0,0,1-6.92,0,4.52,4.52,0,0,1,.08-6.6A4.83,4.83,0,0,1,117.37,15.46Z"/><path class="cls-2" d="M163.68,53h-9.76V39.52c0-1.85-.55-2.78-1.65-2.78h-.06c-1.1.08-1.65,1-1.65,2.78V53H140.9V39.52c0-1.85-.56-2.78-1.66-2.78h-.05c-1.07.08-1.6,1-1.6,2.78V53H128V36.64a9.87,9.87,0,0,1,.77-3.82,10.64,10.64,0,0,1,2.17-3.29,10.44,10.44,0,0,1,3.23-2.27,9.71,9.71,0,0,1,8,.09,14.52,14.52,0,0,1,3.69,2.78c2.46-2.46,5-3.69,7.53-3.69A9.87,9.87,0,0,1,159,28a9.64,9.64,0,0,1,3.49,4.2,14.35,14.35,0,0,1,1.18,5.87Z"/><text class="cls-3" transform="translate(161.99 24.55)">360</text><path class="cls-4" d="M53.75,34.21A19.84,19.84,0,0,0,21.32,18.88l-.38.31,2.24,2.73.38-.32a16.31,16.31,0,1,1-6,12.61v-.5H14.07v.5a19.84,19.84,0,1,0,39.68,0Z"/><path class="cls-4" d="M55.72,34.08v.5A21.77,21.77,0,0,1,38.92,55.44l-.49.11L39,58l.49-.11A24.33,24.33,0,0,0,58.27,34.62v-.5Z"/><path class="cls-4" d="M12.11,34.21A21.69,21.69,0,0,1,33.27,12.42h.5L33.7,9.85h-.5a24.36,24.36,0,0,0-.12,48.7l.5,0L33.66,56l-.5,0A21.71,21.71,0,0,1,12.11,34.21Z"/></g></g></svg>