<svg xmlns="http://www.w3.org/2000/svg" viewBox="0 0 57.19 57.19"><defs><style>.cls-1{fill:none;}</style></defs><title>Asset 7</title><g id="Layer_2" data-name="Layer 2"><g id="Layer_1-2" data-name="Layer 1"><rect class="cls-1" width="57.19" height="57.19"/><path d="M37.79,52.05a4.69,4.69,0,0,0,4.86-3.26A4.79,4.79,0,0,0,46.85,44V25.75h.88a.89.89,0,1,0,0-1.77H43V13.39c0-3.8-2.65-5.16-5.16-5.16h-4.3V6a.88.88,0,0,0-.88-.88H18.91A.88.88,0,0,0,18,6V8.21H13.74c-2.5,0-5.16,1.36-5.16,5.16V46.92c0,3.8,2.64,5.16,5.16,5.16Zm4.27-5a3,3,0,0,1-3.06-3V35.63h6v8.44a3,3,0,0,1-3,3Zm3-13.24H39V25.75h6ZM19.8,6.87H31.73v5.45H19.8Zm-9.46,40V13.34c0-2.81,1.85-3.4,3.4-3.4H18V13.2a.88.88,0,0,0,.88.89h13.7a.88.88,0,0,0,.88-.89V10h4.3c1.55,0,3.39.6,3.39,3.4V24H36.24a.88.88,0,1,0,0,1.76h1V44a4.82,4.82,0,0,0,3.54,4.62,3,3,0,0,1-3,1.62h-24c-1.55,0-3.4-.59-3.4-3.4Z"/><path d="M18.29,22.32H33.23a.88.88,0,1,0,0-1.76H18.29a.88.88,0,0,0,0,1.76Z"/><path d="M18.29,27.26H33.23a.89.89,0,0,0,0-1.77H18.29a.89.89,0,0,0,0,1.77Z"/><path d="M18.29,32.19H33.23a.89.89,0,0,0,0-1.77H18.29a.89.89,0,0,0,0,1.77Z"/><path d="M18.29,37.11H33.23a.89.89,0,0,0,0-1.77H18.29a.89.89,0,0,0,0,1.77Z"/><path d="M18.29,42.05H33.23a.89.89,0,0,0,0-1.77H18.29a.89.89,0,0,0,0,1.77Z"/></g></g></svg>