<svg xmlns="http://www.w3.org/2000/svg" xmlns:xlink="http://www.w3.org/1999/xlink" viewBox="0 0 57.19 57.19"><defs><style>.cls-1{fill:none;}.cls-2{clip-path:url(#clip-path);}</style><clipPath id="clip-path"><rect class="cls-1" x="0.82" y="0.49" width="55.56" height="56.22"/></clipPath></defs><title>Asset 4</title><g id="Layer_2" data-name="Layer 2"><g id="Layer_1-2" data-name="Layer 1"><rect class="cls-1" width="57.19" height="57.19"/><g class="cls-2"><path d="M55.74,32.3,54.42,31a3.75,3.75,0,0,0-5.3,0l-8,8V38a2.81,2.81,0,0,0-2.82-2.81H13.93a.94.94,0,0,0-.66.28l-3.08,3.08V37a.94.94,0,0,0-.94-.94H1.75A.94.94,0,0,0,.82,37V55.77a.93.93,0,0,0,.93.93h7.5a.94.94,0,0,0,.94-.93V54.28l4.13-4.13H40.17a.91.91,0,0,0,.66-.28L55.75,35a1.88,1.88,0,0,0,0-2.65ZM8.31,54.83H2.69V38H8.31Zm31.47-6.56H13.93a.94.94,0,0,0-.66.28l-3.08,3.08V41.16L14.32,37h24a.94.94,0,0,1,.94.93v2.82H27.05v1.87H40.17a.94.94,0,0,0,.94-.94l9.33-9.41a1.88,1.88,0,0,1,2.65,0l1.33,1.33Z"/></g><path d="M50.71,12.28a5.24,5.24,0,0,0-7.42,0l-.41.41-.42-.41a5.24,5.24,0,0,0-7.42,0,5.25,5.25,0,0,0,0,7.41l7.45,7.44a.53.53,0,0,0,.39.16.54.54,0,0,0,.39-.16l7.44-7.44a5.23,5.23,0,0,0,0-7.41Zm-.78,6.63-7,7.05-7.05-7a4.13,4.13,0,0,1,0-5.85,4.12,4.12,0,0,1,5.85,0l.81.8a.54.54,0,0,0,.78,0l.8-.8a4.14,4.14,0,0,1,5.86,5.85Z"/><path d="M42.88,21.06a.68.68,0,0,1-.68-.68H40.84a2,2,0,0,0,1.36,1.91v.81h1.36v-.81a2,2,0,0,0-.68-3.95.68.68,0,1,1,.68-.68h1.36a2.06,2.06,0,0,0-1.36-1.92v-.8H42.2v.8a2,2,0,0,0,.68,4,.68.68,0,0,1,0,1.36Z"/><rect x="46.75" y="15.44" width="1.87" height="1.87"/><rect x="37.38" y="15.44" width="1.87" height="1.87"/><path d="M29.64,19a5.24,5.24,0,0,0-7.42,0l-.42.42L21.39,19A5.25,5.25,0,0,0,14,26.4l7.44,7.44a.54.54,0,0,0,.39.16.53.53,0,0,0,.39-.16l7.45-7.44a5.26,5.26,0,0,0,0-7.42Zm-.79,6.63-7,7.06-7-7.06a4.14,4.14,0,0,1,5.86-5.85l.8.81a.56.56,0,0,0,.78,0l.81-.81a4.14,4.14,0,0,1,5.85,5.85Z"/><path d="M21.81,27.76a.68.68,0,0,1-.69-.68H19.76A2.06,2.06,0,0,0,21.12,29v.8h1.36V29a2,2,0,0,0-.68-4,.68.68,0,1,1,.68-.68h1.36a2,2,0,0,0-1.36-1.91v-.81H21.12v.81a2,2,0,0,0,.69,3.95.68.68,0,0,1,0,1.36Z"/><rect x="25.67" y="22.14" width="1.87" height="1.87"/><rect x="16.31" y="22.14" width="1.87" height="1.87"/><rect x="16.74" y="4.24" width="1.87" height="9.37"/><rect x="16.74" y="0.49" width="1.87" height="1.87"/><rect x="22.37" y="8.92" width="1.87" height="5.62"/><rect x="22.37" y="5.17" width="1.87" height="1.87"/><rect x="27.99" y="6.11" width="1.87" height="5.62"/><rect x="27.99" y="2.36" width="1.87" height="1.87"/><rect x="33.61" y="2.36" width="1.87" height="1.87"/><rect x="41.11" y="0.49" width="1.87" height="1.87"/><rect x="41.11" y="4.24" width="1.87" height="3.75"/><rect x="48.6" y="5.17" width="1.87" height="1.87"/></g></g></svg>