<svg xmlns="http://www.w3.org/2000/svg" viewBox="0 0 28.73 28.73"><defs><style>.cls-1{fill:none;}.cls-2{fill:#fff;}</style></defs><title>Asset 11</title><g id="Layer_2" data-name="Layer 2"><g id="Layer_1-2" data-name="Layer 1"><rect class="cls-1" width="28.73" height="28.73"/><path class="cls-2" d="M19,1.9H9.69A7.79,7.79,0,0,0,1.9,9.69V19a7.79,7.79,0,0,0,7.79,7.79H19A7.79,7.79,0,0,0,26.83,19V9.69A7.79,7.79,0,0,0,19,1.9ZM24.5,19A5.47,5.47,0,0,1,19,24.5H9.69A5.47,5.47,0,0,1,4.23,19V9.69A5.47,5.47,0,0,1,9.69,4.23H19A5.47,5.47,0,0,1,24.5,9.69Z"/><path class="cls-2" d="M14.37,8.13a6.24,6.24,0,1,0,6.23,6.24A6.24,6.24,0,0,0,14.37,8.13Zm0,10.13a3.9,3.9,0,1,1,3.89-3.89A3.9,3.9,0,0,1,14.37,18.26Z"/><circle class="cls-2" cx="21.07" cy="7.66" r="0.83"/></g></g></svg>