<svg xmlns="http://www.w3.org/2000/svg" viewBox="0 0 192.05 75.78"><defs><style>.cls-1{fill:none;}.cls-2,.cls-3{fill:#fff;}.cls-3{font-size:13.81px;font-family:Montserrat-Bold, Montserrat;font-weight:700;}</style></defs><title>Asset 9</title><g id="Layer_2" data-name="Layer 2"><g id="Layer_1-2" data-name="Layer 1"><rect class="cls-1" width="192.05" height="75.78"/><path class="cls-2" d="M64.64,24.13H79.37a10.61,10.61,0,0,1,4.69,1.08,9.11,9.11,0,0,1,3.6,3A7.64,7.64,0,0,1,89,32.72a10,10,0,0,1-3.89,7.9,12.22,12.22,0,0,1,4.15,3.75,8.89,8.89,0,0,1,1.57,5.11A10.11,10.11,0,0,1,89.38,55a9.24,9.24,0,0,1-4,3.52,13.35,13.35,0,0,1-5.73,1.19H76.92V50.6h2.51a2.08,2.08,0,0,0,1.41-.5,1.76,1.76,0,0,0,.57-1.38,1.62,1.62,0,0,0-.53-1.22A1.76,1.76,0,0,0,79.63,47H76.92v-9.5c1.92,0,2.88-.68,2.88-2a1.52,1.52,0,0,0-.65-1.36,2.71,2.71,0,0,0-1.59-.45H75.15v26H64.64Z"/><path class="cls-2" d="M108.61,33.52V44a3.5,3.5,0,0,0-1.65-.43,2.33,2.33,0,0,0-2,.91,3.58,3.58,0,0,0-.69,2.24v13H94.36V44.09a10.26,10.26,0,0,1,1.53-5.41,11.33,11.33,0,0,1,4.08-4,10.62,10.62,0,0,1,5.44-1.48A16.31,16.31,0,0,1,108.61,33.52Z"/><path class="cls-2" d="M122.28,33.73v26h-9.77v-26Zm-4.86-11.51a4.84,4.84,0,0,1,3.4,1.36,4.52,4.52,0,0,1,.05,6.61,5.25,5.25,0,0,1-6.92,0,4.53,4.53,0,0,1,.08-6.61A4.83,4.83,0,0,1,117.42,22.22Z"/><path class="cls-2" d="M163.72,59.71H154V46.27c0-1.85-.55-2.77-1.65-2.77h-.05c-1.11.08-1.66,1-1.66,2.77V59.71h-9.66V46.27c0-1.85-.55-2.77-1.65-2.77h-.06c-1.06.08-1.6,1-1.6,2.77V59.71H128V43.4a9.75,9.75,0,0,1,.78-3.83A10.58,10.58,0,0,1,131,36.28,10.09,10.09,0,0,1,134.2,34,9.17,9.17,0,0,1,138,33.2a9.27,9.27,0,0,1,4.2.91,14.46,14.46,0,0,1,3.69,2.77q3.69-3.68,7.53-3.68a9.92,9.92,0,0,1,5.62,1.55,9.66,9.66,0,0,1,3.5,4.2,14.39,14.39,0,0,1,1.17,5.88Z"/><text class="cls-3" transform="translate(162.04 31.31)">360</text><path class="cls-2" d="M53.8,41A19.85,19.85,0,0,0,21.37,25.63L21,26l2.24,2.73.39-.32a16.31,16.31,0,1,1-6,12.61v-.5H14.11V41A19.85,19.85,0,0,0,53.8,41Z"/><path class="cls-2" d="M55.76,40.83v.5A21.76,21.76,0,0,1,39,62.19l-.49.12.59,2.49.48-.12a24.3,24.3,0,0,0,18.77-23.3v-.5Z"/><path class="cls-2" d="M12.15,41A21.69,21.69,0,0,1,33.32,19.18l.5,0-.08-2.56-.5,0a24.36,24.36,0,0,0-.12,48.69l.5,0,.09-2.56h-.5A21.71,21.71,0,0,1,12.15,41Z"/></g></g></svg>