<svg xmlns="http://www.w3.org/2000/svg" viewBox="0 0 64.05 57.19"><defs><style>.cls-1{fill:none;}</style></defs><title>Asset 5</title><g id="Layer_2" data-name="Layer 2"><g id="Layer_1-2" data-name="Layer 1"><rect class="cls-1" width="64.05" height="57.19"/><path d="M18.79,39.85a2,2,0,1,0,2,2A2,2,0,0,0,18.79,39.85Z"/><path d="M52.37,39.85a2,2,0,1,0,2,2A2,2,0,0,0,52.37,39.85Z"/><path d="M58.22,25.66l-1.58-6.31a1,1,0,0,0,.76-.93v-1a4,4,0,0,0-4-4H46.2V11.3a2,2,0,0,0-2-2H7.6a2,2,0,0,0-2,2V28.6a1,1,0,0,0,1.91,0V11.3a.07.07,0,0,1,.06-.07H44.23a.07.07,0,0,1,.07.07V28.6a1,1,0,1,0,1.9,0V27.51H57.46a3.14,3.14,0,0,1,3,2.17h-3a.94.94,0,0,0-1,.95v2a3,3,0,0,0,3,3h1.08v4.19h-2.5a6,6,0,0,0-11.42,0H46.2V32.67a1,1,0,1,0-1.9,0v7.18H24.5a6,6,0,0,0-11.42,0H7.6a.06.06,0,0,1-.06-.06v-2.1h4.13a1,1,0,1,0,0-1.91H2.51a1,1,0,0,0,0,1.91H5.63v2.1a2,2,0,0,0,2,2h5.15v.06a6,6,0,1,0,12.09,0s0,0,0-.06h21.5v.06a6,6,0,1,0,12.09,0s0,0,0-.06h3.12a1,1,0,0,0,1-.95V30.63A5,5,0,0,0,58.22,25.66Zm-12-6.29h8.48l1.56,6.24h-10Zm7.19-4.07a2.11,2.11,0,0,1,2.1,2.1v.07H46.2V15.3ZM18.79,46a4.14,4.14,0,1,1,4.14-4.14A4.15,4.15,0,0,1,18.79,46Zm33.58,0a4.14,4.14,0,1,1,4.14-4.14A4.14,4.14,0,0,1,52.37,46ZM59.5,33.75a1.08,1.08,0,0,1-1.08-1.08V31.58h2.16v2.17Z"/><path d="M26,36.74a1,1,0,0,0,.95.95H41.18a1,1,0,0,0,0-1.91H26.93A1,1,0,0,0,26,36.74Z"/><path d="M4.55,33.62H16.76a1,1,0,0,0,0-1.91H4.55a1,1,0,1,0,0,1.91Z"/><rect x="25.26" y="17.83" width="1.77" height="10.63" rx="0.89"/><rect x="25.26" y="17.83" width="1.77" height="10.63" rx="0.89" transform="translate(49.3 -3) rotate(90)"/></g></g></svg>