<svg xmlns="http://www.w3.org/2000/svg" xmlns:xlink="http://www.w3.org/1999/xlink" viewBox="0 0 57.19 57.19"><defs><style>.cls-1{fill:none;}.cls-2{clip-path:url(#clip-path);}</style><clipPath id="clip-path"><rect class="cls-1" x="4.65" y="3.45" width="47.9" height="50.29"/></clipPath></defs><title>Asset 8</title><g id="Layer_2" data-name="Layer 2"><g id="Layer_1-2" data-name="Layer 1"><rect class="cls-1" width="57.19" height="57.19"/><path d="M14.49,28H31.05a1.07,1.07,0,0,0,0-2.14H14.49a1.07,1.07,0,0,0,0,2.14Z"/><g class="cls-2"><path d="M24.4,32.81H14.49a1.07,1.07,0,1,0,0,2.13H24.4a1.07,1.07,0,1,0,0-2.13Z"/><path d="M42.94,30.44V12A5.34,5.34,0,0,0,37.6,6.64H33.22v-2a1.07,1.07,0,1,0-2.13,0v2H16.56v-2a1.07,1.07,0,1,0-2.13,0v2H10.05A5.34,5.34,0,0,0,4.71,12V40.91a5.34,5.34,0,0,0,5.34,5.34H29.82A11.75,11.75,0,1,0,42.94,30.44ZM10.06,8.78h4.38v2a1.07,1.07,0,0,0,2.13,0v-2H31.1v2a1.07,1.07,0,0,0,2.14,0v-2h4.37A3.21,3.21,0,0,1,40.82,12v2.59h-34V12a3.2,3.2,0,0,1,3.2-3.2Zm0,35.34a3.21,3.21,0,0,1-3.2-3.21V16.69h34V30.23h0A11.77,11.77,0,0,0,29.22,44.12Zm30.72,7.47A9.61,9.61,0,1,1,50.39,42a9.62,9.62,0,0,1-9.61,9.61Z"/></g><path d="M45.72,38.15,39.38,44.2,36.1,40.91a1.07,1.07,0,1,0-1.51,1.51l4,4a1,1,0,0,0,.76.3,1,1,0,0,0,.73-.29l7.09-6.79a1,1,0,0,0,.33-.74,1.06,1.06,0,0,0-.29-.76,1.08,1.08,0,0,0-1.52,0Z"/></g></g></svg>