<svg xmlns="http://www.w3.org/2000/svg" viewBox="0 0 57.19 57.19"><defs><style>.cls-1{fill:none;}</style></defs><title>Asset 2</title><g id="Layer_2" data-name="Layer 2"><g id="Layer_1-2" data-name="Layer 1"><rect class="cls-1" width="57.19" height="57.19"/><path d="M53.93,27.8H49.49a14,14,0,0,0,.95-9.88A11.87,11.87,0,0,0,39.22,9.4a14,14,0,0,0-4.84.89,24.86,24.86,0,0,0-5.58,2.8,24.09,24.09,0,0,0-5.59-2.8,14.21,14.21,0,0,0-4.84-.89A11.87,11.87,0,0,0,7.15,17.92c-.7,2.45-1,6.14,1.4,10.78H3.16a.78.78,0,0,0-.8.79.79.79,0,0,0,.8.8H9.49a10.55,10.55,0,0,0,.9,1.35c5.19,7.48,16.46,15.61,18.5,16.11v0a.15.15,0,0,0,.1,0h.15v0c1.75-.85,12.57-7.83,18.26-16.11a18.29,18.29,0,0,0,1.39-2.25H54a.79.79,0,0,0,.8-.79A.84.84,0,0,0,53.93,27.8ZM8.75,18.37A10.18,10.18,0,0,1,18.42,11a13.24,13.24,0,0,1,4.29.8,24.6,24.6,0,0,1,5.64,2.89.75.75,0,0,0,1,0A22,22,0,0,1,35,11.84a12,12,0,0,1,4.29-.8,10.22,10.22,0,0,1,9.67,7.33c.85,2.89.4,6.09-1.19,9.43H42.86l-2-3.49a.78.78,0,0,0-.69-.4.76.76,0,0,0-.7.35l-1.7,2.49L35,17.82a.9.9,0,0,0-.8-.59.85.85,0,0,0-.8.59l-4.63,16L23.71,21a.75.75,0,0,0-.7-.5.78.78,0,0,0-.75.45l-3.94,7.73H10.39C8.4,25,7.85,21.51,8.75,18.37ZM46,30.74c-5.29,7.73-15,14-17.1,15.31C26.7,44.7,17,38.42,11.69,30.74l-.3-.45h7.33a.82.82,0,0,0,.75-.45l3.34-6.58,5.24,13.41a.82.82,0,0,0,.75.5h.05a.8.8,0,0,0,.74-.59l4.59-15.71,2.45,7.93a.79.79,0,0,0,.64.54.87.87,0,0,0,.8-.35l2-2.84,1.64,2.79a.8.8,0,0,0,.7.4h4.49C46.55,29.84,46.25,30.29,46,30.74Z"/></g></g></svg>