<svg xmlns="http://www.w3.org/2000/svg" xmlns:xlink="http://www.w3.org/1999/xlink" viewBox="0 0 57.19 57.19"><defs><style>.cls-1{fill:none;}.cls-2{clip-path:url(#clip-path);}</style><clipPath id="clip-path"><rect class="cls-1" x="6.31" y="3.7" width="44.57" height="49.79"/></clipPath></defs><title>Asset 3</title><g id="Layer_2" data-name="Layer 2"><g id="Layer_1-2" data-name="Layer 1"><rect class="cls-1" width="57.19" height="57.19"/><g class="cls-2"><path d="M50.3,40.62l-1.76-2.78a1,1,0,0,0-1.35-.3,1,1,0,0,0-.3,1.34l1.77,2.78a1.26,1.26,0,0,1-1.17,1.93,1.29,1.29,0,0,1-.92-.53L39,32.25l-3-7.18v-.85a1,1,0,0,0-1.94,0v13H23.08v-13a1,1,0,0,0-1.94,0v.86l-3,7.17-7.6,10.81a1.23,1.23,0,0,1-.91.52,1.24,1.24,0,0,1-1-.35,1.27,1.27,0,0,1-.17-1.57L15.2,31a2,2,0,0,0,.1-.21l2.88-8.59a7.43,7.43,0,0,1,7-5.05h6.66a7.43,7.43,0,0,1,7,5.05l2.89,8.59a.67.67,0,0,0,.1.21l1.31,2.08a1,1,0,0,0,.83.45,1,1,0,0,0,.52-.15,1,1,0,0,0,.3-1.34l-1.26-2-2.85-8.48A9.36,9.36,0,0,0,33,15.28,6.14,6.14,0,0,0,34.67,11V9.77a6.12,6.12,0,1,0-12.23,0V11a6.1,6.1,0,0,0,1.71,4.24,9.36,9.36,0,0,0-7.81,6.31l-2.85,8.48L6.8,40.62a3.22,3.22,0,0,0,.46,4A3.15,3.15,0,0,0,9,45.49H9a5.85,5.85,0,0,0,5.48,7.89,5.72,5.72,0,0,0,1.52-.2l12.54-3.37,12.54,3.37a5.72,5.72,0,0,0,1.52.2,5.84,5.84,0,0,0,5.48-7.89h0a3.12,3.12,0,0,0,1.75-.88,3.21,3.21,0,0,0,.46-4ZM24.38,9.77a4.17,4.17,0,1,1,8.34,0V11a4.17,4.17,0,1,1-8.34,0ZM37.22,33.1a.77.77,0,0,0,.1.18l5.48,7.8L36,37.59v-7.5Zm-17.44.18a.77.77,0,0,0,.1-.18l1.26-3v7.49L14.3,41.08ZM46.23,49a3.9,3.9,0,0,1-4.63,2.31l-9.83-2.65A3.34,3.34,0,0,0,33.05,46a.41.41,0,0,0,0-.11l6.08,1.44.22,0a1,1,0,0,0,.95-.75,1,1,0,0,0-.73-1.16L32.3,43.76l-.17,0a3.49,3.49,0,0,0-.35-.32,3.36,3.36,0,0,0-2.85-.64l-11.39,2.7A1,1,0,0,0,18,47.37l11.4-2.69a1.38,1.38,0,0,1,1.19.26,1.4,1.4,0,0,1,.54,1.1,1.42,1.42,0,0,1-1,1.36l-1.73.46-.06,0L15.5,51.32a3.9,3.9,0,0,1-2.78-7.25l9.71-5H34.67l9.72,5A3.88,3.88,0,0,1,46.23,49Z"/></g><path d="M45.09,36.08a1,1,0,0,0,1.37,0l0,0a1,1,0,1,0-1.38-1.38l0,0a1,1,0,0,0,0,1.37Z"/></g></g></svg>