<svg xmlns="http://www.w3.org/2000/svg" viewBox="0 0 28.73 28.73"><defs><style>.cls-1{fill:none;}.cls-2{fill:#fff;}</style></defs><title>Asset 12</title><g id="Layer_2" data-name="Layer 2"><g id="Layer_1-2" data-name="Layer 1"><rect class="cls-1" width="28.73" height="28.73"/><path class="cls-2" d="M26.83,6.14a9.23,9.23,0,0,1-1.77.6,5.49,5.49,0,0,0,1.46-2.32h0a.29.29,0,0,0-.42-.34h0A10.41,10.41,0,0,1,23.38,5.2l-.17,0A.69.69,0,0,1,22.74,5a5.54,5.54,0,0,0-3.68-1.39,5.92,5.92,0,0,0-1.76.27A5.37,5.37,0,0,0,13.68,7.8a5.91,5.91,0,0,0-.14,2,.17.17,0,0,1,0,.16.21.21,0,0,1-.15.07h0a14.59,14.59,0,0,1-10-5.35h0a.28.28,0,0,0-.47,0h0a5.47,5.47,0,0,0-.76,2.79,5.54,5.54,0,0,0,1.66,4A5.3,5.3,0,0,1,2.47,11h0a.29.29,0,0,0-.43.25H2a5.53,5.53,0,0,0,3.25,5.12H5.17a5,5,0,0,1-.94-.09h0a.29.29,0,0,0-.33.38h0a5.56,5.56,0,0,0,4.4,3.78,10.27,10.27,0,0,1-5.74,1.75H1.91a.43.43,0,0,0-.2.8,15.26,15.26,0,0,0,7.66,2.07,15.43,15.43,0,0,0,6.54-1.39A14.24,14.24,0,0,0,20.7,20.1a15.85,15.85,0,0,0,2.94-4.91,15.55,15.55,0,0,0,1-5.38V9.73A1,1,0,0,1,25,9a10.79,10.79,0,0,0,2.2-2.42h0a.29.29,0,0,0-.36-.43Z"/></g></g></svg>