<svg xmlns="http://www.w3.org/2000/svg" viewBox="0 0 57.19 57.19"><defs><style>.cls-1{fill:none;}</style></defs><title>Asset 6</title><g id="Layer_2" data-name="Layer 2"><g id="Layer_1-2" data-name="Layer 1"><rect class="cls-1" width="57.19" height="57.19"/><path d="M23.29,12a5.54,5.54,0,1,0-5.54-5.54A5.55,5.55,0,0,0,23.29,12Zm0-9.46a3.92,3.92,0,1,1-3.92,3.92A3.93,3.93,0,0,1,23.29,2.54Z"/><path d="M44.06,34.68a.82.82,0,0,0-1.15,0L36.1,41.63l-2.4-2.51a.81.81,0,0,0-1.15,0,.82.82,0,0,0,0,1.15l3,3.12a.82.82,0,0,0,1.17,0l7.39-7.54A.82.82,0,0,0,44.06,34.68Z"/><path d="M48.53,40.1a.8.8,0,0,0-1,.63A14.34,14.34,0,0,1,39,51.17a.81.81,0,1,0,.61,1.5,15.89,15.89,0,0,0,9.6-11.62A.8.8,0,0,0,48.53,40.1Z"/><path d="M47.14,27.6a5.63,5.63,0,0,1-6.08.12,7.6,7.6,0,0,1-2.35-2.3,1.55,1.55,0,0,0-1.26-.74,22.53,22.53,0,0,0-5.92-8.91A6.54,6.54,0,0,0,27.1,14H19.48a6.83,6.83,0,0,0-4.7,1.86A22.15,22.15,0,0,0,7.71,32.1a3.25,3.25,0,0,0,3.11,3.26,3.18,3.18,0,0,0,3.28-3.19,15.69,15.69,0,0,1,2.56-8.66v30a2.82,2.82,0,0,0,2.82,2.81h1.81a2.83,2.83,0,0,0,2-.83,2.83,2.83,0,0,0,2,.83H27.1a2.81,2.81,0,0,0,2.82-2.81V49.19a15.63,15.63,0,0,0,5.26,3.48.81.81,0,0,0,.6-1.5A14.29,14.29,0,0,1,26.89,37.9V29.06A7.27,7.27,0,0,0,36,28a9.1,9.1,0,0,0,1.41-1.64v0a9.47,9.47,0,0,0,2.84,2.76,7.21,7.21,0,0,0,7.65,0v8.05a.81.81,0,0,0,1.62,0V29A1.57,1.57,0,0,0,47.14,27.6ZM24.72,15.67l-1,1.15a.6.6,0,0,1-.91,0l-1-1.15ZM28.3,53.46a1.19,1.19,0,0,1-1.2,1.19H25.29a1.19,1.19,0,0,1-1.19-1.19V36.8a.81.81,0,1,0-1.62,0V53.46a1.19,1.19,0,0,1-1.19,1.19H19.48a1.19,1.19,0,0,1-1.19-1.19V21.12a.82.82,0,0,0-1.42-.54,17.27,17.27,0,0,0-4.4,11.59,1.56,1.56,0,0,1-1.61,1.57A1.61,1.61,0,0,1,9.34,32.1a20.52,20.52,0,0,1,6.55-15,5.23,5.23,0,0,1,3.59-1.41h.26l1.85,2.19a2.22,2.22,0,0,0,3.4,0l1.85-2.19h.26A4.89,4.89,0,0,1,30.43,17,20.83,20.83,0,0,1,36,25.47a7.72,7.72,0,0,1-2.57,2.38,17.24,17.24,0,0,0-3.72-7.1.81.81,0,0,0-1.42.53V28c-.35-.16-.79-.4-.8-.4A1.57,1.57,0,0,0,25.26,29V37.9a15.87,15.87,0,0,0,3,9.38v6.18Zm1.62-25V23.72a15.53,15.53,0,0,1,2,4.73A5.17,5.17,0,0,1,29.92,28.48Z"/></g></g></svg>